<svg width="16" height="17" viewBox="0 0 16 17" fill="none" xmlns="http://www.w3.org/2000/svg">
    <g opacity="0.6">
        <path
            d="M2 9.222C2 9.17067 2 9.14467 2.00133 9.12333C2.01184 8.96182 2.08074 8.80964 2.19519 8.69519C2.30964 8.58074 2.46182 8.51184 2.62333 8.50133C2.64533 8.5 2.67 8.5 2.722 8.5H13.278C13.3293 8.5 13.3547 8.5 13.3767 8.50133C13.5382 8.51184 13.6904 8.58074 13.8048 8.69519C13.9193 8.80964 13.9882 8.96182 13.9987 9.12333C14 9.14467 14 9.17 14 9.222C14 9.48533 14 9.61733 13.9907 9.76533C13.8513 11.9567 11.9887 13.8913 9.804 14.112C9.65667 14.1273 9.57067 14.1307 9.39867 14.1373C8.93266 14.1557 8.46636 14.1655 8 14.1667C7.56667 14.1667 7.09067 14.1553 6.60133 14.1373C6.42933 14.1307 6.34333 14.1273 6.19667 14.1127C4.01133 13.8913 2.14867 11.9567 2.01 9.76533C2 9.61733 2 9.48533 2 9.222Z"
            stroke="black" stroke-width="1.07143" />
        <path
            d="M3.9987 13.8333L3.33203 15.1667M11.9987 13.8333L12.6654 15.1667M1.33203 8.5H14.6654"
            stroke="black" stroke-width="1.07143" stroke-linecap="round" />
        <path
            d="M1.5 9.16536C1.5 9.29797 1.55268 9.42515 1.64645 9.51892C1.74021 9.61269 1.86739 9.66536 2 9.66536C2.13261 9.66536 2.25979 9.61269 2.35355 9.51892C2.44732 9.42515 2.5 9.29797 2.5 9.16536H1.5ZM4.23067 6.3267L3.76533 6.51003C3.78995 6.57226 3.8268 6.62891 3.87371 6.67663C3.92063 6.72435 3.97664 6.76217 4.03843 6.78785C4.10023 6.81352 4.16655 6.82653 4.23347 6.82611C4.30039 6.82568 4.36654 6.81183 4.428 6.78536L4.23067 6.3267ZM8.204 4.61536L8.402 5.07536C8.52132 5.02397 8.61596 4.92814 8.66586 4.80819C8.71576 4.68823 8.717 4.55356 8.66933 4.4327L8.204 4.61536ZM2.5 9.16536V3.42203H1.5V9.16536H2.5ZM3.59 2.33203C4.036 2.33203 4.43667 2.60336 4.602 3.01736L5.53067 2.64536C5.3756 2.25758 5.10791 1.92581 4.76212 1.6916C4.41633 1.45739 4.00831 1.33215 3.59067 1.33203L3.59 2.33203ZM2.5 3.42203C2.5 2.82003 2.988 2.33203 3.59 2.33203L3.59067 1.33203C3.03636 1.33203 2.5041 1.55223 2.11215 1.94418C1.7202 2.33613 1.5 2.86773 1.5 3.42203H2.5ZM4.602 3.01736L4.85533 3.64936L5.78333 3.27803L5.53067 2.64536L4.602 3.01736ZM4.69533 6.14336C4.5277 5.71594 4.53104 5.24039 4.70467 4.81536L3.778 4.4387C3.50758 5.10178 3.50347 5.84352 3.76533 6.51003L4.69533 6.14336ZM8.00667 4.1567L4.03267 5.86736L4.428 6.78536L8.40133 5.0747L8.00667 4.1567ZM6.85467 3.87736C7.26933 4.0547 7.578 4.39003 7.73933 4.7987L8.66933 4.4327C8.54227 4.1048 8.35113 3.80484 8.10709 3.55164C7.86305 3.29844 7.571 3.09642 7.248 2.95736L6.85467 3.87736ZM4.70467 4.81536C4.86131 4.42181 5.15819 4.1009 5.538 3.91336L5.10067 3.0147C4.49907 3.30976 4.02794 3.817 3.778 4.4387L4.70467 4.81536ZM5.538 3.91336C5.74188 3.81268 5.96516 3.75738 6.19246 3.75128C6.41976 3.74518 6.64568 3.78776 6.85467 3.87736L7.248 2.95736C6.90712 2.81156 6.53876 2.74181 6.16814 2.75159C5.79752 2.76137 5.43338 2.85112 5.10067 3.0147L5.538 3.91336Z"
            fill="black" />
    </g>
</svg>