<svg width="24" height="24" viewBox="0 0 24 24" fill="none" xmlns="http://www.w3.org/2000/svg">
    <path fill-rule="evenodd" clip-rule="evenodd"
        d="M9.918 3.632C9.063 4.284 8.068 5.277 6.672 6.672C5.276 8.067 4.284 9.062 3.632 9.918C2.992 10.756 2.75 11.372 2.75 12C2.75 12.628 2.992 13.244 3.632 14.082C4.284 14.937 5.277 15.932 6.672 17.328C8.067 18.724 9.062 19.715 9.918 20.368C10.756 21.008 11.372 21.25 12 21.25C12.628 21.25 13.244 21.008 14.082 20.368C14.937 19.716 15.932 18.723 17.328 17.328C18.724 15.933 19.715 14.938 20.368 14.082C21.008 13.244 21.25 12.628 21.25 12C21.25 11.372 21.008 10.756 20.368 9.918C19.716 9.063 18.723 8.068 17.328 6.672C15.933 5.276 14.938 4.284 14.082 3.632C13.244 2.992 12.628 2.75 12 2.75C11.372 2.75 10.756 2.992 9.918 3.632ZM9.008 2.439C9.98 1.698 10.912 1.25 12 1.25C13.088 1.25 14.02 1.698 14.992 2.44C15.937 3.16 17.002 4.225 18.348 5.572L18.428 5.652C19.775 6.999 20.84 8.063 21.561 9.008C22.302 9.98 22.75 10.912 22.75 12C22.75 13.088 22.302 14.02 21.56 14.992C20.84 15.937 19.775 17.002 18.428 18.348L18.348 18.428C17.001 19.775 15.937 20.84 14.992 21.561C14.02 22.302 13.088 22.75 12 22.75C10.912 22.75 9.98 22.302 9.008 21.56C8.063 20.84 6.998 19.775 5.652 18.428L5.572 18.348C4.225 17.001 3.16 15.937 2.439 14.992C1.698 14.02 1.25 13.088 1.25 12C1.25 10.912 1.698 9.98 2.44 9.008C3.16 8.063 4.225 6.998 5.572 5.652L5.652 5.572C6.999 4.225 8.063 3.16 9.008 2.439Z"
        fill="black" />
    <path fill-rule="evenodd" clip-rule="evenodd"
        d="M12.786 8.48701C12.9221 8.34195 13.1102 8.25688 13.309 8.25051C13.5077 8.24413 13.7009 8.31697 13.846 8.45301L16.513 10.953C16.5878 11.0232 16.6474 11.1079 16.6881 11.202C16.7289 11.296 16.7499 11.3975 16.7499 11.5C16.7499 11.6025 16.7289 11.704 16.6881 11.7981C16.6474 11.8921 16.5878 11.9769 16.513 12.047L13.846 14.547C13.7003 14.6796 13.5083 14.7496 13.3115 14.7419C13.1146 14.7341 12.9288 14.6492 12.794 14.5055C12.6592 14.3618 12.5864 14.1709 12.5913 13.9739C12.5962 13.777 12.6783 13.5899 12.82 13.453L14.103 12.25H10.667C10.333 12.25 9.823 12.35 9.42 12.622C9.057 12.867 8.75 13.265 8.75 14C8.75 14.1989 8.67098 14.3897 8.53033 14.5303C8.38968 14.671 8.19891 14.75 8 14.75C7.80109 14.75 7.61032 14.671 7.46967 14.5303C7.32902 14.3897 7.25 14.1989 7.25 14C7.25 12.735 7.832 11.883 8.58 11.378C9.289 10.9 10.112 10.75 10.667 10.75H14.103L12.82 9.54701C12.6749 9.41094 12.5899 9.22283 12.5835 9.02405C12.5771 8.82527 12.65 8.63209 12.786 8.48701Z"
        fill="black" />
</svg>